<?xml version="1.0" standalone="no"?>
<!DOCTYPE svg PUBLIC "-//W3C//DTD SVG 20010904//EN"
 "http://www.w3.org/TR/2001/REC-SVG-20010904/DTD/svg10.dtd">
<svg version="1.0" xmlns="http://www.w3.org/2000/svg"
 width="100.000000pt" height="100.000000pt" viewBox="0 0 100.000000 100.000000"
 preserveAspectRatio="xMidYMid meet">
<metadata>
Created by potrace 1.11, written by Peter Selinger 2001-2013
</metadata>
<g transform="translate(0.000000,100.000000) scale(0.100000,-0.100000)"
fill="#000000" stroke="none">
<path d="M443 923 c-1 -38 -2 -77 -2 -89 -1 -19 -6 -20 -143 -20 l-143 1 -3
-52 c-3 -45 0 -53 15 -54 10 0 75 0 146 1 97 1 127 -2 128 -12 1 -7 1 -31 2
-53 l1 -40 -105 -2 c-57 -1 -123 -2 -146 -2 l-43 -1 0 -50 c0 -27 3 -51 8 -51
4 -1 66 -2 139 -3 72 0 134 -4 138 -8 4 -4 8 -32 9 -63 l1 -55 -115 1 c-200 1
-180 7 -180 -50 0 -30 5 -50 13 -53 6 -2 72 -3 145 -3 87 1 132 -2 133 -9 1
-6 2 -60 3 -121 l1 -110 53 -3 52 -3 0 124 0 124 133 1 c72 0 138 1 145 1 8 1
12 18 12 51 l0 50 -72 1 c-40 0 -106 0 -145 0 l-73 0 0 63 0 62 145 0 145 -1
0 53 0 52 -37 1 c-21 0 -86 0 -145 0 l-108 0 0 55 0 54 145 0 145 0 0 53 0 52
-145 -1 -145 -1 0 89 0 88 -53 0 -54 0 0 -67z"/>
</g>
</svg>
